<svg xmlns="http://www.w3.org/2000/svg" viewBox="-604 326.59 69.031 68.41"><path d="M-559.684 393.578l.003-14.21c0-2.775-1.566-4.412-3.27-5.603 10.23-.87 13.993-5.83 14.656-13.2.542-4.865-.305-8.823-3.31-11.89 1.35-3.023.373-7.17-.305-8.88-2.307-.674-7.687 2.21-9.192 3.445-3.17-1.25-12.026-1.69-16.745 0-3.344-2.387-7.15-3.864-9.224-3.452-1.916 4.31-.684 8.386-.31 8.873-2.467 2.29-4.11 6.925-3.256 12.503 1.37 8.182 4.898 11.46 14.553 12.602-1.4 1.255-1.527 2.36-1.7 3.037-6.484 2.716-8.336-1.678-9.157-2.824-2.72-3.422-5.163-2.428-5.316-2.373-.146.054-.256.27-.24.372.135.738 1.62 1.49 1.69 1.55 2.008 1.52 2.81 4.236 3.21 5.05 3.306 6.575 9.783 2.815 9.846 2.854.005.295.016 8.337.022 12.564-15.074-3.665-26.26-17.138-26.26-33.207 0-18.886 15.45-34.197 34.507-34.197s34.506 15.31 34.506 34.197c0 15.513-10.426 28.606-24.71 32.79z" fill="#aad8f4"/></svg>