<svg xmlns="http://www.w3.org/2000/svg" viewBox="-445 181 387.625 360"><path d="M-57.375 361c0 99.41-80.223 180-179.203 180-57.066 0-107.91-26.8-140.734-68.55 29.738 22.03 66.494 35.05 106.268 35.05 98.97 0 179.203-80.59 179.203-180 0-42.09-14.387-80.8-38.49-111.46 44.253 32.77 72.955 85.5 72.955 144.96z" fill="#93caee"/><path d="M-91.84 327.5c0 99.41-80.234 180-179.204 180-39.773 0-76.53-13.02-106.268-35.05-24.083-30.66-38.47-69.37-38.47-111.45 0-99.41 80.234-180 179.204-180 39.773 0 76.52 13.02 106.248 35.04 24.103 30.66 38.49 69.37 38.49 111.46z" fill="#a9d8f4"/><path fill="#94caee" d="M-61 230h-11v-11h-2v11h-11v2h11v11h2v-11h11z"/><path fill="#7dbce7" d="M-394 502.375h-23.375V479h-4.25v23.375H-445v4.25h23.375V530h4.25v-23.375H-394z"/><circle cx="-289" cy="294" r="27" fill="#94caee"/><ellipse cx="-273.422" cy="429.406" rx="39.016" ry="39" fill="#94caee"/><ellipse cx="-156.656" cy="309.484" rx="42.781" ry="42.766" fill="#94caee"/><g fill="#7dbce7"><path d="M-375.512 215.39a12.97 12.97 0 0 1-6.808 7.318 12.97 12.97 0 0 1-9.99.36 12.97 12.97 0 0 1-7.318-6.807 12.968 12.968 0 0 1-.36-9.99 12.968 12.968 0 0 1 6.807-7.317 12.975 12.975 0 0 1 9.99-.363 12.975 12.975 0 0 1 7.318 6.81 12.975 12.975 0 0 1 .36 9.99zm-19.367-7.216a7.555 7.555 0 0 0 .21 5.82 7.55 7.55 0 0 0 4.265 3.965c1.903.71 3.97.635 5.82-.21a7.56 7.56 0 0 0 3.965-4.265 7.557 7.557 0 0 0-.21-5.818 7.556 7.556 0 0 0-4.263-3.967 7.557 7.557 0 0 0-5.82.21 7.554 7.554 0 0 0-3.966 4.264z"/><path d="M-382.9 220.426a1.805 1.805 0 0 1-.296.515l-25.85 31.63a1.817 1.817 0 1 1-2.815-2.298l25.85-31.63a1.817 1.817 0 0 1 3.112 1.783zM-391.013 202.68a1.817 1.817 0 0 1-1.755 1.182l-40.832-1.142a1.816 1.816 0 1 1 .1-3.633l40.832 1.14a1.816 1.816 0 0 1 1.766 1.87 1.77 1.77 0 0 1-.11.583zM-396.264 210.968a1.817 1.817 0 0 1-1.455 1.168l-28.83 3.984a1.82 1.82 0 1 1-.498-3.602l28.83-3.984a1.82 1.82 0 0 1 1.954 2.434zM-386.744 212.23c-.162.437-.49.81-.948 1.02l-53.05 24.256a1.817 1.817 0 1 1-1.513-3.306l53.052-24.256a1.817 1.817 0 0 1 2.46 2.287z"/></g></svg>