<svg xmlns="http://www.w3.org/2000/svg" viewBox="0 0 69 69"><circle cx="34.5" cy="34.5" r="34.5" fill-rule="evenodd" clip-rule="evenodd" fill="#aad8f4"/><path d="M41.904 29.747c3.17 0 5.742-2.63 5.742-5.877 0-3.246-2.57-5.877-5.742-5.877-3.17 0-5.74 2.63-5.74 5.877s2.57 5.877 5.74 5.877zm-15.13 0c3.172 0 5.743-2.63 5.743-5.877 0-3.246-2.57-5.877-5.742-5.877-3.17 0-5.74 2.63-5.74 5.877s2.57 5.877 5.74 5.877zm30.78-1.742c-1.738 1.978-9.22 4.483-10.186 4.483h-8.2c-1.833 0-4.922.495-4.922 1.68v.967a5.055 5.055 0 0 1-.243-.213c-1.35-1.282-2.702-2.27-5.116-2.17-2.414.097-8.106-.3-11.39-1.09-3.282-.79-8.898-5.585-9.362-4.344-.483 1.28.385 2.17 2.123 4.345 1.738 2.174 9.226 5.168 9.226 5.168v9.09c0 2.67 5.404 6.717 8.202 6.717s4.92-1.975 4.92-3.358v-8.397c.53.283 1.08.48 1.64.617v7.78c0 1.38 1.88 4.71 7.575 4.71 5.696 0 7.19-6.886 7.19-8.07v-8.396c4.053-2.173 8.2-3.358 10.186-7.248 1.867-3.654.095-4.245-1.64-2.27z" fill-rule="evenodd" clip-rule="evenodd" fill="#FFF"/></svg>