<svg xmlns="http://www.w3.org/2000/svg" viewBox="0 0 31 30.277"><path d="M19.9 30.09l.002-6.383c0-1.246-.703-1.982-1.47-2.517 4.596-.39 6.287-2.62 6.585-5.93.243-2.185-.137-3.963-1.487-5.34.607-1.358.168-3.22-.137-3.99-1.037-.302-3.453.993-4.13 1.548-1.423-.56-5.4-.76-7.52 0-1.503-1.07-3.213-1.735-4.144-1.55-.86 1.937-.308 3.767-.14 3.986-1.108 1.028-1.846 3.11-1.463 5.616.615 3.675 2.2 5.147 6.537 5.66-.63.565-.686 1.062-.764 1.365-2.912 1.22-3.744-.754-4.113-1.268-1.222-1.537-2.32-1.09-2.388-1.066-.067.025-.116.122-.11.168.062.33.73.67.76.696.903.683 1.264 1.903 1.443 2.268 1.485 2.954 4.394 1.265 4.423 1.282.002.132.007 3.744.01 5.643C5.026 28.63 0 22.58 0 15.36 0 6.878 6.94 0 15.5 0 24.06 0 31 6.877 31 15.36c0 6.97-4.683 12.85-11.1 14.73z" fill="#3e6e43"/></svg>