<svg xmlns="http://www.w3.org/2000/svg" viewBox="0 0 30.938 31.094"><ellipse cx="15.469" cy="15.547" rx="15.469" ry="15.547" fill-rule="evenodd" clip-rule="evenodd" fill="#3e6e43"/><path d="M12 13.407c1.422 0 2.574-1.185 2.574-2.65 0-1.462-1.153-2.648-2.574-2.648-1.422 0-2.574 1.184-2.574 2.648 0 1.464 1.152 2.65 2.574 2.65zm6.783 0c1.422 0 2.574-1.185 2.574-2.65 0-1.462-1.153-2.648-2.574-2.648-1.42 0-2.574 1.184-2.574 2.648 0 1.464 1.152 2.65 2.573 2.65zm7.017-.785c-.78.89-4.135 2.02-4.567 2.02h-3.676c-.822 0-2.207.224-2.207.758v.436c-.04-.033-.077-.065-.11-.096-.604-.578-1.21-1.023-2.293-.98-1.082.045-3.634-.133-5.107-.49-1.47-.356-3.99-2.517-4.197-1.958-.217.578.172.978.952 1.958S8.73 16.6 8.73 16.6v4.097c0 1.203 2.424 3.027 3.678 3.027s2.206-.89 2.206-1.513v-3.783c.238.128.485.216.735.278v3.506c0 .623.842 2.125 3.395 2.125s3.222-3.104 3.222-3.637v-3.784c1.817-.98 3.677-1.513 4.567-3.267.84-1.648.044-1.915-.734-1.025z" fill-rule="evenodd" clip-rule="evenodd" fill="#7bc57b"/></svg>