<svg id="Layer_1" xmlns="http://www.w3.org/2000/svg" viewBox="-409 335.4 202.2 91"><style>.st0{fill:#69c075}.st1{fill:#64be6c}</style><path d="M-369.7 380.8c5 4.3 11.9 9.6 18.4 14.5-.9 2-2.6 4.1-4 5.6-3.2-2.5-11.7-9.5-14.6-11.9h-.1c-3.7 3-10.6 8.6-14.8 12.1-1.8-1.5-3.7-4.1-4.6-6.1 6.9-5.2 12.9-9.6 19-14.2h.7zm.3-7c6.2 0 12.4-.1 16.9-.2.2.7.3 2.2.3 3.7 0 1.2-.1 2.4-.3 3.3-4.6-.1-11.7-.2-18.9-.2-6.2 0-12.4.1-16.9.2-.2-.7-.3-2.2-.3-3.7 0-1.2.1-2.4.3-3.3 4.6.1 11.8.2 18.9.2z"/><path class="st0" d="M-378.1 355.5c-7 7-14.2 14.6-22.5 23.6-2.5-1.6-6.2-4.2-7.8-6.7 8.6-8.4 17.3-16.8 25.8-25.4 7-7 4.5-4.2 11.7-11.7 12.3 13 18.1 18.1 31.1 31.1s14 13.5 28.6 27.5c-1.6 2.5-4.6 5-7.2 6.7-12.2-13.1-11.9-13.3-25.1-26.5-8.8-8.8-17.8-17.6-26.9-26.2-2.7 2.5-5.2 5.1-7.7 7.6z"/><path d="M-401.8 336.5c1.3.6 12.5 5.8 16.9 8.2l.1.1-13.8 13.5c-.1 0-2.3-14-3.2-21.8zm58.7 21.8l-13.8-13.5.1-.1c4.4-2.4 15.6-7.6 16.9-8.2-1 7.8-3.2 21.8-3.2 21.8z"/><path class="st0" d="M-406.1 414.2v9.6h4.4v2.3h-7.3v-12h2.9zm9 12h-2.9v-12h2.9v12zm10.2 0l-4.9-7.1v7.1h-2.8v-12h2.8l4.9 7.1v-7.1h2.8v12h-2.8zm11.2-12.2c1.6 0 2.9.2 3.9.7l-.4 2.2c-1-.4-2.1-.6-3.2-.6-.6 0-1.1.1-1.6.2s-.9.4-1.2.7c-.3.3-.6.8-.8 1.3s-.3 1.1-.3 1.8c0 1.2.3 2.2 1 2.8.7.6 1.6 1 2.9 1 .3 0 .5 0 .8-.1.3 0 .5-.1.6-.2v-3.3h2.6v4.9c-.5.3-1.2.5-2 .6-.8.2-1.7.2-2.5.2-1 0-1.9-.1-2.7-.4s-1.5-.7-2-1.2c-.6-.5-1-1.2-1.3-1.9-.3-.7-.4-1.6-.4-2.5 0-1 .1-1.8.4-2.6.3-.8.7-1.4 1.3-2 .6-.6 1.2-1 2.1-1.3.8-.2 1.7-.3 2.8-.3zm12.5 12.2h-3.3l-4-12h3.1l2.6 9.1 2.6-9.1h3.1l-4.1 12zm16.7-6c0 .9-.1 1.6-.4 2.4-.3.7-.7 1.4-1.2 2-.5.6-1.2 1-1.9 1.3-.8.3-1.6.5-2.6.5s-1.8-.2-2.6-.5c-.7-.3-1.4-.8-1.9-1.3-.5-.6-.9-1.2-1.2-2-.3-.7-.4-1.5-.4-2.4s.1-1.6.4-2.4c.3-.7.7-1.4 1.2-2 .5-.6 1.2-1 1.9-1.3.8-.3 1.6-.5 2.6-.5s1.8.2 2.6.5 1.4.8 1.9 1.3c.5.6.9 1.2 1.2 2 .3.7.4 1.5.4 2.4zm-6.1 3.8c.5 0 1-.1 1.4-.3.4-.2.7-.5 1-.8.3-.3.5-.7.6-1.2.1-.5.2-1 .2-1.6s-.1-1.1-.2-1.6-.3-.9-.6-1.2-.6-.6-1-.8c-.4-.2-.9-.3-1.4-.3-.5 0-1 .1-1.4.3-.4.2-.7.5-1 .8s-.5.8-.6 1.2c-.1.5-.2 1-.2 1.6s.1 1.1.2 1.6.3.9.6 1.2c.3.3.6.6 1 .8.4.3.9.3 1.4.3z"/><path d="M-344.4 426.2v-12h2.9v5.7l3.8-5.7h3.3l-4 5.9 4.3 6.1h-3.5l-3.8-5.9v5.9h-3zm22.7-6c0 .9-.1 1.6-.4 2.4-.3.7-.7 1.4-1.2 2-.5.6-1.2 1-1.9 1.3-.8.3-1.6.5-2.6.5s-1.8-.2-2.6-.5-1.4-.8-1.9-1.3c-.5-.6-.9-1.2-1.2-2-.3-.7-.4-1.5-.4-2.4s.1-1.6.4-2.4c.3-.7.7-1.4 1.2-2 .5-.6 1.2-1 1.9-1.3s1.6-.5 2.6-.5 1.8.2 2.6.5 1.4.8 1.9 1.3c.5.6.9 1.2 1.2 2 .2.8.4 1.6.4 2.4zm-6.1 3.8c.5 0 1-.1 1.4-.3.4-.2.7-.5 1-.8.3-.3.5-.7.6-1.2.1-.5.2-1 .2-1.6s-.1-1.1-.2-1.6-.3-.9-.6-1.2-.6-.6-1-.8c-.4-.2-.9-.3-1.4-.3-.5 0-1 .1-1.4.3-.4.2-.7.5-1 .8s-.5.8-.6 1.2c-.1.5-.2 1-.2 1.6s.1 1.1.2 1.6.3.9.6 1.2c.3.3.6.6 1 .8.4.3.8.3 1.4.3zm16-9.8v2.3h-3.2v9.6h-2.9v-9.6h-3.2v-2.3h9.3z"/><path class="st1" d="M-312.5 365.7c-1.7-3.1-2.5-7-2.9-10.9.7-.1 1.5-.1 2.2-.2.2 2.9 1 6.6 1.9 8.9.6-2.3 1.2-5.6 1.7-7.7l2.5-.1c.2 2.8 1.1 6 1.9 7.8.7-3 1.3-6 2-8.9.7.1 1.4.2 2.1.4-.9 3.6-1.9 7.1-2.8 10.7h-2.7c-1-2.2-1.7-4.6-1.9-7.1-.4 1.8-.9 5.3-1.3 7.1h-2.7zm13.2 0c-.1-1.9-.1-3.8-.1-5.7 0-1.7 0-3.4.1-5.2h6.8v1.8h-4.7v2.4h3.9v1.8h-3.9c0 .9 0 2.3.1 3.2h4.9v1.8l-7.1-.1zm14.5 0c.2-3.6.4-7.2.9-10.9h2.4c.8 2.1 1.8 4.8 2.6 6.9.7-2.1 1.8-4.9 2.6-6.9h2.4c.4 3.8.7 7.2.9 10.9h-2.2c-.2-2.1-.4-4.9-.5-7.1-.8 1.9-1.5 3.8-2.2 5.8h-2.2c-.7-1.9-1.7-4.4-2.2-5.8-.3 2.4-.4 4.9-.5 7.2-.6-.1-1.3 0-2-.1zm15.7.1l-2.2-.1 3.9-10.9 2.2-.1 3.7 11-2.2.1-.9-2.8h-3.5l-1 2.8zm3.9-4.4l-1.2-4.3c-.5 1.4-.9 2.8-1.3 4.3h2.5zm5.4 4.3v-10.9h2.2v4.5c1.2 0 2.9-2.6 4-4.1l.6-.8 1.6 1.3c-1.2 1.4-2.4 3-3.6 4.1 1.4 2 3.3 4 4.2 4.8-.6 1-1.1 1.3-1.5 1.3-.3 0-.5-.1-.8-.3-1.2-1.1-3.1-3.2-3.9-4.9-.3.1-.5.2-.7.2v4.8h-2.1zm10.7 0c-.1-1.9-.1-3.8-.1-5.7 0-1.7 0-3.4.1-5.2h6.8v1.8h-4.7v2.4h3.9v1.8h-3.9c0 .9 0 2.3.1 3.2h4.9v1.8l-7.1-.1zM-296.2 385.7c-.1-1.9-.2-3.7-.2-5.6 0-1.4 0-2.4.1-3.5h-3.1v-1.8h8.5v1.8h-3.2c-.1 1.2-.1 2.3-.1 3.5 0 1.4 0 3.8.2 5.6h-2.2zm12.7 0v-5.1h-3.7c0 1.5 0 3.8.1 5.1h-2.1c0-1.6-.1-3.5-.1-5.6 0-1.6 0-3.7.1-5.3h2.1c0 1.3-.1 2.6-.1 4h3.7v-4h2.2v10.9h-2.2zm5.2 0c-.1-1.9-.1-3.8-.1-5.7 0-1.7 0-3.4.1-5.2h6.8v1.8h-4.7v2.4h3.9v1.8h-3.9c0 .9 0 2.3.1 3.2h4.9v1.8l-7.1-.1zm14.8.1c-.1-1.8-.1-3.7-.1-5.5 0-2.3.1-3.9.1-5.4h6.8v1.8h-4.7v2.6h3.7v1.8h-3.7c0 1.2.1 3.7.2 4.7h-2.3zm16.8-3.8c0 2.8-1.7 3.9-4.1 3.9-2.6 0-4.1-1.1-4.1-3.9v-7.2l2.2.1v7.2c0 1.6.8 2.1 1.9 2.1 1.1 0 1.9-.6 1.9-2.1v-7.2h2.2v7.1zm4.7 3.7c-.1-1.9-.2-3.7-.2-5.6 0-1.4 0-2.4.1-3.5h-3.1v-1.8h8.5v1.8h-3.2c-.1 1.2-.1 2.3-.1 3.5 0 1.4 0 3.8.2 5.6h-2.2zm14.9-3.7c0 2.8-1.7 3.9-4.1 3.9-2.6 0-4.1-1.1-4.1-3.9v-7.2l2.2.1v7.2c0 1.6.8 2.1 1.9 2.1 1.1 0 1.9-.6 1.9-2.1v-7.2h2.2v7.1zm2.8-6.8c1.3-.3 3.2-.4 4.4-.4 2.3 0 3.4 1.2 3.4 3.3 0 1-.5 2.1-1.4 2.8.4 1.6 1.4 3.2 2.3 4.1-.4.7-.9 1-1.4 1-.7 0-1.9-1.7-2.7-4.3-.4 0-.8.1-1.3.1h-1.1v4.1h-2.2v-10.7zm2.2 4.8h1.2c1.2 0 2.2-.6 2.2-2 0-1-.4-1.6-1.4-1.6-.4 0-1.5 0-2 .1v3.5zm8.4 5.7c-.1-1.9-.1-3.8-.1-5.7 0-1.7 0-3.4.1-5.2h6.8v1.8h-4.7v2.4h3.9v1.8h-3.9c0 .9 0 2.3.1 3.2h4.9v1.8l-7.1-.1z"/></svg>