<svg xmlns="http://www.w3.org/2000/svg" viewBox="0 0 204.017 98.609"><path d="M40.425 45.435c5.042 4.254 11.923 9.56 18.436 14.497-.892 1.996-2.572 4.15-4.042 5.568-3.153-2.52-11.66-9.454-14.603-11.923h-.105c-3.73 3.046-10.558 8.614-14.812 12.133-1.787-1.47-3.677-4.15-4.623-6.093 6.88-5.2 12.87-9.612 18.962-14.18h.788zm.366-7.038c6.2 0 12.397-.052 16.915-.158.158.734.262 2.205.262 3.728 0 1.156-.053 2.364-.262 3.31-4.57-.106-11.714-.16-18.857-.16-6.197 0-12.396.053-16.912.16-.158-.736-.264-2.207-.264-3.73 0-1.21.053-2.364.264-3.31 4.57.053 11.713.16 18.855.16z"/><path d="M32.035 20.096c-7.03 7.03-14.18 14.638-22.477 23.63-2.535-1.614-6.22-4.157-7.834-6.693 8.645-8.413 17.29-16.828 25.82-25.357 7.03-7.03 4.47-4.183 11.73-11.676C51.61 13.025 57.37 18.103 70.395 31.128 83.417 44.152 84.36 44.634 99 58.582c-1.614 2.536-4.587 4.99-7.238 6.72C79.544 52.16 79.87 52.023 66.612 38.768a1502.61 1502.61 0 0 0-26.856-26.166c-2.65 2.42-5.186 4.957-7.72 7.492z" fill="#69c075"/><path d="M8.348 1.115c1.295.602 12.483 5.81 16.85 8.223l.065.07-13.757 13.55S9.28 8.887 8.348 1.114zM67.075 22.957L53.32 9.407l.065-.07c4.365-2.412 15.553-7.62 16.85-8.223-.933 7.774-3.16 21.843-3.16 21.843z"/><text transform="translate(0 90.776)"><tspan x="0" y="0" fill="#69c075" font-family="Seravek-Bold" font-size="17.969">Lingvo</tspan><tspan x="64.56" y="0" font-family="Seravek-Bold" font-size="17.969">Kot</tspan></text><text transform="translate(94.53 30.357)"><tspan x="0" y="0" fill="#64be6c" font-family="LubaLTCYR-Bold" font-size="16">We make</tspan><tspan x="0" y="20" fill="#64be6c" font-family="LubaLTCYR-Bold" font-size="16"> the future</tspan></text></svg>