<svg xmlns="http://www.w3.org/2000/svg" viewBox="-537 311.391 204.017 98.609"><path d="M-496.575 356.826c5.042 4.254 11.923 9.56 18.436 14.497-.892 1.996-2.572 4.15-4.042 5.568-3.153-2.52-11.66-9.453-14.603-11.922h-.105c-3.73 3.046-10.558 8.614-14.812 12.133-1.787-1.47-3.677-4.148-4.623-6.092 6.88-5.2 12.87-9.612 18.962-14.18h.788v-.002zm.366-7.038c6.2 0 12.397-.052 16.915-.158.158.735.262 2.206.262 3.73 0 1.155-.053 2.363-.262 3.308-4.57-.105-11.714-.158-18.857-.158-6.197 0-12.396.052-16.912.158-.158-.735-.264-2.206-.264-3.73 0-1.208.053-2.363.264-3.308 4.57.052 11.713.158 18.855.158z"/><path d="M-504.965 331.487c-7.03 7.03-14.18 14.638-22.477 23.63-2.535-1.614-6.22-4.157-7.834-6.693 8.645-8.413 17.29-16.828 25.82-25.357 7.03-7.03 4.47-4.183 11.73-11.676 12.335 13.026 18.095 18.104 31.12 31.13 13.024 13.023 13.967 13.505 28.606 27.453-1.614 2.536-4.587 4.99-7.238 6.72-12.218-13.142-11.893-13.278-25.15-26.533a1502.61 1502.61 0 0 0-26.856-26.165c-2.65 2.42-5.186 4.957-7.72 7.492z" fill="#69c075"/><path d="M-528.652 312.506c1.295.602 12.483 5.81 16.85 8.223l.065.068-13.757 13.55s-2.227-14.07-3.158-21.842zM-469.925 334.348l-13.756-13.55.065-.07c4.365-2.412 15.553-7.62 16.85-8.223-.933 7.774-3.16 21.843-3.16 21.843z"/><g fill="#69c075"><path d="M-532.885 390.2v9.63h4.402v2.337h-7.35V390.2h2.948zM-523.955 402.166h-2.947V390.2h2.947v11.966zM-513.75 402.166l-4.94-7.134v7.134h-2.84V390.2h2.84l4.94 7.133V390.2h2.84v11.967h-2.84zM-502.555 389.984c1.557 0 2.863.243 3.917.73l-.395 2.216a8.748 8.748 0 0 0-3.234-.61c-.6 0-1.138.078-1.617.233a3.14 3.14 0 0 0-1.23.728c-.342.33-.606.75-.792 1.26-.186.51-.28 1.116-.28 1.823 0 1.246.327 2.187.98 2.82.653.636 1.614.953 2.884.953.275 0 .54-.02.79-.063.253-.04.462-.092.63-.152v-3.34h2.642v4.933c-.515.254-1.17.463-1.968.625a12.38 12.38 0 0 1-2.488.245c-1.006 0-1.905-.147-2.695-.44s-1.463-.703-2.014-1.23a5.308 5.308 0 0 1-1.267-1.896c-.295-.736-.44-1.554-.44-2.452 0-.958.145-1.83.44-2.614a5.492 5.492 0 0 1 1.284-2.012c.563-.558 1.25-.988 2.066-1.294.815-.308 1.743-.46 2.785-.46zM-490.013 402.166h-3.306l-4.042-11.967h3.09l2.606 9.108 2.605-9.11h3.09l-4.043 11.968zM-473.32 396.183c0 .85-.138 1.65-.413 2.398a5.832 5.832 0 0 1-1.195 1.97 5.64 5.64 0 0 1-1.914 1.338c-.754.33-1.617.494-2.587.494s-1.835-.165-2.595-.494a5.606 5.606 0 0 1-1.923-1.34 5.692 5.692 0 0 1-1.186-1.967c-.27-.747-.404-1.547-.404-2.397s.135-1.65.404-2.4a5.722 5.722 0 0 1 1.186-1.966 5.62 5.62 0 0 1 1.923-1.34c.76-.328 1.626-.493 2.596-.493s1.834.165 2.588.494c.755.33 1.393.775 1.914 1.34.52.56.92 1.218 1.195 1.966.275.75.413 1.548.413 2.4zm-6.11 3.863c.515 0 .97-.096 1.366-.288.395-.19.728-.458.997-.8.27-.34.47-.748.602-1.222.132-.473.198-.99.198-1.554s-.066-1.08-.198-1.555c-.132-.473-.333-.88-.602-1.222s-.602-.607-.997-.8c-.396-.19-.85-.287-1.366-.287-.527 0-.985.096-1.375.287-.39.192-.72.458-.988.8s-.47.75-.602 1.222c-.132.474-.198.99-.198 1.555s.066 1.08.198 1.554.333.88.602 1.223c.27.34.6.606.988.798.39.193.848.288 1.375.288z"/></g><path d="M-471.272 402.166V390.2h2.947v5.73l3.773-5.73h3.324l-4.043 5.91 4.33 6.057h-3.54l-3.846-5.857v5.857h-2.946zM-448.56 396.183c0 .85-.138 1.65-.413 2.398a5.832 5.832 0 0 1-1.195 1.97 5.64 5.64 0 0 1-1.914 1.338c-.754.33-1.617.494-2.587.494-.97 0-1.835-.165-2.596-.494s-1.4-.775-1.923-1.34a5.708 5.708 0 0 1-1.185-1.967c-.27-.747-.404-1.547-.404-2.397s.136-1.65.405-2.4a5.722 5.722 0 0 1 1.186-1.966c.522-.563 1.163-1.01 1.924-1.34s1.626-.493 2.597-.493c.97 0 1.834.165 2.588.494.755.33 1.393.775 1.914 1.34.52.56.92 1.218 1.195 1.966a6.88 6.88 0 0 1 .413 2.4zm-6.11 3.863c.516 0 .97-.096 1.366-.288.396-.19.728-.458.997-.8.27-.34.47-.748.603-1.222.132-.473.197-.99.197-1.554s-.065-1.08-.197-1.555c-.132-.473-.333-.88-.603-1.222s-.602-.607-.997-.8c-.396-.19-.85-.287-1.365-.287-.526 0-.984.096-1.374.287-.39.192-.72.458-.988.8s-.47.75-.602 1.222c-.132.474-.198.99-.198 1.555s.066 1.08.198 1.554.332.88.602 1.223c.27.34.6.606.988.798.39.193.848.288 1.375.288zM-438.587 390.2v2.336h-3.217v9.63h-2.947v-9.63h-3.217V390.2h9.38z"/><g fill="#64be6c"><path d="M-439.364 341.748c-1.73-3.105-2.545-6.98-2.865-10.885.737-.063 1.474-.128 2.21-.176.192 2.93 1.008 6.643 1.873 8.947.56-2.257 1.168-5.586 1.665-7.73l2.544-.112c.24 2.833 1.104 5.97 1.857 7.843.67-2.993 1.327-5.954 2.016-8.947.72.145 1.425.24 2.13.384-.913 3.554-1.857 7.123-2.754 10.677h-2.657a23.64 23.64 0 0 1-1.937-7.076c-.4 1.76-.896 5.3-1.312 7.075h-2.77zM-426.117 341.748a106.31 106.31 0 0 1-.145-5.683c0-1.696.05-3.36.13-5.202h6.802v1.777h-4.706a111.66 111.66 0 0 0-.032 2.4h3.89v1.777h-3.905c0 .88.03 2.305.063 3.17h4.85v1.76h-6.947zM-411.622 341.748c.21-3.586.448-7.25.945-10.885h2.417c.784 2.08 1.776 4.754 2.576 6.852.72-2.113 1.793-4.93 2.61-6.852h2.4c.368 3.762.672 7.155.944 10.885l-2.177.032c-.177-2.13-.368-4.914-.545-7.123a97.475 97.475 0 0 0-2.16 5.763h-2.16c-.69-1.873-1.682-4.418-2.194-5.795-.256 2.417-.368 4.946-.512 7.155-.72-.032-1.423 0-2.144-.032zM-395.973 341.828l-2.16-.096 3.89-10.87 2.176-.11 3.697 10.98-2.24.11-.913-2.784h-3.49l-.96 2.77zm3.906-4.433l-1.152-4.258a326.095 326.095 0 0 0-1.327 4.258h2.48zM-386.613 341.748v-10.885h2.177v4.466c1.232 0 2.913-2.61 4.05-4.066l.592-.752 1.633 1.312c-1.186 1.408-2.386 3.025-3.618 4.098 1.425 2.017 3.266 4.018 4.21 4.754-.593.977-1.073 1.28-1.473 1.28-.273 0-.53-.063-.754-.272-1.2-1.056-3.104-3.25-3.92-4.865-.273.095-.53.175-.722.175v4.754h-2.177zM-375.94 341.748a106.31 106.31 0 0 1-.146-5.683c0-1.696.05-3.36.13-5.202h6.802v1.777h-4.706a111.66 111.66 0 0 0-.032 2.4h3.89v1.777h-3.905c0 .88.03 2.305.063 3.17h4.85v1.76h-6.947z"/></g><g fill="#64be6c"><path d="M-423.028 361.748a79.067 79.067 0 0 1-.176-5.618c0-1.377 0-2.385.08-3.506h-3.09v-1.76h8.45v1.76h-3.152a71.56 71.56 0 0 0-.08 3.506c0 1.425.05 3.777.177 5.603-.736.015-1.472.015-2.208.015zM-410.308 361.748v-5.138h-3.697c0 1.504.032 3.825.064 5.138-.722 0-1.426 0-2.147.016-.03-1.568-.063-3.52-.08-5.602 0-1.633.05-3.666.097-5.3h2.145c-.048 1.33-.08 2.578-.08 3.97h3.697v-3.97h2.177v10.886h-2.178zM-405.11 361.748a106.31 106.31 0 0 1-.144-5.683c0-1.696.05-3.36.13-5.202h6.802v1.777h-4.706a111.66 111.66 0 0 0-.032 2.4h3.89v1.777h-3.905c0 .88.03 2.305.063 3.17h4.85v1.76h-6.947zM-390.325 361.764a195.937 195.937 0 0 1-.13-5.52c.018-2.274.065-3.86.13-5.38h6.77v1.777h-4.69c0 .657-.015 1.985-.015 2.642h3.665v1.777h-3.68c.015 1.247.095 3.664.158 4.673l-2.208.03zM-373.507 358.02c0 2.832-1.68 3.89-4.08 3.89-2.643 0-4.066-1.09-4.066-3.89 0-2.386 0-4.77.03-7.172l2.178.064v7.17c0 1.553.753 2.146 1.857 2.146 1.12 0 1.89-.608 1.89-2.113 0-2.4 0-4.834-.018-7.25h2.21v7.154zM-368.82 361.748a79.067 79.067 0 0 1-.177-5.618c0-1.377 0-2.385.08-3.506h-3.09v-1.76h8.45v1.76h-3.152a71.56 71.56 0 0 0-.08 3.506c0 1.425.05 3.777.178 5.603-.737.015-1.473.015-2.21.015zM-353.907 358.02c0 2.832-1.68 3.89-4.08 3.89-2.643 0-4.066-1.09-4.066-3.89 0-2.386 0-4.77.03-7.172l2.178.064v7.17c0 1.553.753 2.146 1.857 2.146 1.12 0 1.89-.608 1.89-2.113 0-2.4 0-4.834-.018-7.25h2.21v7.154zM-351.127 351.152c1.312-.27 3.202-.432 4.386-.432 2.336 0 3.377 1.185 3.377 3.297 0 1.04-.496 2.113-1.41 2.785.418 1.65 1.426 3.218 2.307 4.098-.353.688-.896 1.01-1.44 1.01-.72 0-1.89-1.73-2.674-4.274-.416.048-.848.08-1.28.08-.256 0-.832-.017-1.088-.032v4.065h-2.178V351.15zm2.178 4.834c.257.017.88.05 1.2.05 1.218 0 2.193-.642 2.193-2.02 0-.99-.384-1.632-1.36-1.632-.448 0-1.488.017-2.032.08v3.522zM-340.566 361.748a106.31 106.31 0 0 1-.145-5.683c0-1.696.048-3.36.128-5.202h6.803v1.777h-4.705a111.66 111.66 0 0 0-.032 2.4h3.89v1.777h-3.905c0 .88.03 2.305.063 3.17h4.85v1.76h-6.946z"/></g></svg>