<svg xmlns="http://www.w3.org/2000/svg" viewBox="0 0 130 40"><path d="M126 0H4a4 4 0 0 0-4 4v32a4 4 0 0 0 4 4h122a4 4 0 0 0 4-4V4a4 4 0 0 0-4-4z" fill-rule="evenodd" clip-rule="evenodd" fill="#080A0B"/><text transform="translate(38.267 13.666)"><tspan x="0" y="0" fill="#FFF" font-family="MyriadPro-Regular" font-size="10">D</tspan><tspan x="6.54" y="0" fill="#FFF" font-family="MyriadPro-Regular" font-size="10">o</tspan><tspan x="11.95" y="0" fill="#FFF" font-family="MyriadPro-Regular" font-size="10">w</tspan><tspan x="18.96" y="0" fill="#FFF" font-family="MyriadPro-Regular" font-size="10">n</tspan><tspan x="24.09" y="0" fill="#FFF" font-family="MyriadPro-Regular" font-size="10">l</tspan><tspan x="26.48" y="0" fill="#FFF" font-family="MyriadPro-Regular" font-size="10">o</tspan><tspan x="32.43" y="0" fill="#FFF" font-family="MyriadPro-Regular" font-size="10">a</tspan><tspan x="37.679" y="0" fill="#FFF" font-family="MyriadPro-Regular" font-size="10">d </tspan><tspan x="45.439" y="0" fill="#FFF" font-family="MyriadPro-Regular" font-size="10">o</tspan><tspan x="50.949" y="0" fill="#FFF" font-family="MyriadPro-Regular" font-size="10">n</tspan><tspan x="56.499" y="0" fill="#FFF" font-family="MyriadPro-Regular" font-size="10"> </tspan><tspan x="59.019" y="0" fill="#FFF" font-family="MyriadPro-Regular" font-size="10">t</tspan><tspan x="62.089" y="0" fill="#FFF" font-family="MyriadPro-Regular" font-size="10">h</tspan><tspan x="68.279" y="0" fill="#FFF" font-family="MyriadPro-Regular" font-size="10">e</tspan><tspan x="-.68" y="17" fill="#FFF" font-family="MyriadPro-Semibold" font-size="18">A</tspan><tspan x="10.57" y="17" fill="#FFF" font-family="MyriadPro-Semibold" font-size="18">p</tspan><tspan x="21.532" y="17" fill="#FFF" font-family="MyriadPro-Semibold" font-size="18">p </tspan><tspan x="35.787" y="17" fill="#FFF" font-family="MyriadPro-Semibold" font-size="18">S</tspan><tspan x="45.219" y="17" fill="#FFF" font-family="MyriadPro-Semibold" font-size="18">tore</tspan></text><path d="M23.605 6.772c-2.18.176-5.273 2.426-4.852 5.765 2.872.106 5.274-3.14 4.852-5.765zm2.39 12.96c0-3.258 2.79-4.758 2.79-4.758s-1.828-2.742-4.688-2.742c-2.12 0-3.246 1.23-4.676 1.23-1.698 0-2.577-1.23-4.686-1.23-2.402 0-6.234 2.144-6.234 7.5 0 5.156 3.785 11.496 6.715 11.496 1.535 0 2.215-.996 4.23-.996 2.32 0 2.438.996 4.184.996 3.105 0 5.87-6.504 5.87-6.504s-3.504-1.124-3.504-4.992z" fill-rule="evenodd" clip-rule="evenodd" fill="#FFF"/></svg>