<svg xmlns="http://www.w3.org/2000/svg" viewBox="-423 128 432.006 465"><path fill="#77c379" d="M-419.994 557l75.69 21 197.31-21zM-180.994 579l86.17 14 35.83-14zM-112.994 450l62.17 21 59.83-21z"/><path d="M-137.81 128.07c-.39-.05-.78-.07-1.18-.07l-272.89.01c-6.12 0-11.12 5-11.12 11.12v393.18c0 6.12 4.89 10.69 11.01 10.69h273c6.11 0 11-4.88 11-11V139c0-5.72-4.27-10.36-9.82-10.93zM-402.99 170h255v330h-255V170z" fill="#fbfcfc"/><path d="M-275.492 512.288c-5.234 0-9.474 4.245-9.474 9.48 0 5.228 4.24 9.474 9.474 9.474 5.23 0 9.472-4.246 9.472-9.475 0-5.233-4.242-9.48-9.472-9.48zM-291.674 148.03a2.8 2.8 0 0 0-2.797 2.795 2.8 2.8 0 0 0 2.796 2.8 2.796 2.796 0 0 0 2.79-2.8c0-1.54-1.25-2.796-2.79-2.796zM-257.527 148.647h-24.386c-.557 0-1.014.456-1.014 1.014v2.342c0 .557.456 1.014 1.014 1.014h24.386c.557 0 1.014-.456 1.014-1.014v-2.34c0-.56-.457-1.015-1.014-1.015z" fill="#f1f0f0"/><path fill="#79bdee" d="M-402.99 170h255v330h-255z"/><path d="M-178.67 128.01L-198.12 170l-152.84 330-20.12 43.43h-40.8c-6.12 0-11.12-5-11.12-11.12V139.13c0-6.12 5-11.12 11.12-11.12h233.21z" fill="#FFF" opacity=".102"/><path d="M8.253 275.686v16.806s.752-.336.752-.75v-15.306c0-.414-.752-.75-.752-.75zM-115.993 223.616v15.306c0 .414.6.75.6.75v-16.806s-.6.336-.6.75zM-115.993 249.426v15.306c0 .414.6.75.6.75v-16.806s-.6.336-.6.75z" fill="#FFF"/><path d="M8.006 207c.005-.438.05-4.77-2-9-1.98-4.09-5.932-8.013-15-9-2.244-.27-21.138-1.936-43.618-2h-.99l-1.003.002c-22.456.063-41.15 1.73-43.39 2-9.09.988-13.015 4.91-15 9-2.037 4.205-2.002 8.564-2 9 0 0-.322 210.004 0 210-.055.605.002 4.79 2 9 1.95 4.105 5.934 8.013 15 9 2.238.27 20.902 1.934 43.407 2l.986-.002h.99l.016-.002c22.49-.06 41.37-1.726 43.6-1.997 9.093-.987 13.02-4.91 15-9 2.052-4.233 2.006-8.568 2-9V207h.002z" fill="#fbfcfc"/><path d="M-45.48 417.94h-16.54c-3.237 0-5.863 2.62-5.863 5.85s2.625 5.853 5.864 5.853h16.54c3.237 0 5.863-2.62 5.863-5.852 0-3.23-2.626-5.85-5.864-5.85z" fill="#f1f0f0"/><path d="M-42.416 194.98h-22.156c-.787 0-1.424.9-1.424 2.01 0 1.11.638 2.01 1.424 2.01h22.156c.787 0 1.424-.9 1.424-2.01 0-1.11-.637-2.01-1.424-2.01z" fill="#f3f3f3"/><circle cx="-27.985" cy="196.982" r="2.007" fill="#f3f3f3"/><circle cx="-77.985" cy="196.982" r="2.007" fill="#f3f3f3"/><path fill="#4cecd7" d="M-109 215H1v197h-110z"/><path d="M-52.612 187h-.99l-1.003.002c-22.456.063-41.15 1.73-43.39 2-9.09.988-13.015 4.91-15 9-2.037 4.205-2.002 8.564-2 9 0 0-.322 210.004 0 210-.055.605.002 4.79 2 9 1.95 4.105 16.194 6.586 15 9 8.095-15.895 85.268-235.935 88.87-245.665-1.99 1.102-22.62-2.278-43.487-2.338zm43.618 2a3.58 3.58 0 0 0-.13.336c.152-.085.207-.194.13-.336z" fill="#fbfcfc" opacity=".2"/><g fill="#fbfcfc"><path d="M-69.99 354h-101c-1.94 0-3.67.62-5.01 1.67h111.02c-1.35-1.06-3.08-1.67-5.01-1.67zM-62 361.97c0-2.63-1.14-4.88-2.98-6.3H-176c-1.85 1.44-2.99 3.7-2.99 6.33v197c0 4.56 3.36 8.01 7.92 8.01l101.08-.01c4.56 0 8-3.44 8-8v-14.67L-62 361.97zM-171.99 377h103v164h-103V377z"/></g><circle cx="-132.746" cy="365.764" r="2.086" fill="#f1f0f0"/><path d="M-107.542 364.138h-17.665c-.557 0-1.013.456-1.013 1.014v1.23c0 .556.456 1.013 1.013 1.013h17.665c.557 0 1.014-.456 1.014-1.014v-1.228a1.02 1.02 0 0 0-1.014-1.014z" fill="#f1f0f0"/><path fill="#f3d364" d="M-171.99 377h103v164h-103z"/><path d="M-170.994 354c-4.56 0-8 3.438-8 8v197c0 4.562 3.368 8.005 7.928 8.005h7.36l87.437-213.33-94.724.325z" fill="#FFF" opacity=".2"/><path d="M-120.678 546.892a7.065 7.065 0 0 0-7.063 7.067 7.062 7.062 0 0 0 7.062 7.064c3.9 0 7.063-3.164 7.063-7.065 0-3.9-3.164-7.068-7.063-7.068z" fill="#f1f0f0"/></svg>