<svg xmlns="http://www.w3.org/2000/svg" viewBox="0 0 130 40"><path d="M126 0H4a4 4 0 0 0-4 4v32a4 4 0 0 0 4 4h122a4 4 0 0 0 4-4V4a4 4 0 0 0-4-4z" fill-rule="evenodd" clip-rule="evenodd" fill="#080a0b"/><path d="M99 32h1V21h-1v11zm5.69-8.05c-3.03 0-3.117 2.22-3.117 2.22l.96-.004s-.046-1.516 2.134-1.516C106.847 24.65 107 26 107 26v1h-2c-2.543 0-3.755 1.424-3.755 2.79 0 1.368.762 2.338 2.625 2.338S107 31 107 31v1h1v-6s-.277-2.05-3.31-2.05zM107 29c0 1.577-2.086 2.368-3.048 2.368-.96 0-1.758-.456-1.758-1.507 0-1.05 1.282-1.86 2.806-1.86h2v1zm8-5l-2.448 6.788L110 24h-1l3.02 8.003-.563 1.34s-.774 1.027-1.22 1.027c-.444 0-.67-.125-.67-.125l-.25.7s.452.266.905.266c1.008 0 2.433-.393 2.777-1.21.343-.82 3-10 3-10h-1zm-20.66-.05c-1.665 0-2.31 1.012-2.34 1.05v-1h-1v11h1v-4c.03.05.43 1.128 2.363 1.128 1.97 0 3.493-1.262 3.493-4.152s-1.83-4.027-3.517-4.027zm-.14 7.453c-1.617 0-2.17-2.353-2.2-2.403v-2c.03-.042.743-2.302 2.316-2.302 1.43 0 2.625 1.45 2.625 3.34 0 1.892-1.1 3.365-2.74 3.365zM44.774 28.77c.655-.164 2.39-.144 2.39-.144v2.413s-.768.433-1.935.433c-3.376 0-5.563-2.952-5.563-5.646 0-3.29 2.36-4.68 4.408-4.68 2.05 0 3.205 1.51 3.205 1.51l-.374.612.602-.162 1.3-1.223s-1.3-1.32-4.553-1.32c-3.96 0-6.263 3.033-6.263 5.904 0 2.51 1.74 5.678 6.067 5.678 2.236 0 4.75-.82 4.75-.82V29.38C48.81 28.427 50 28 50 28h-4l-1.225.77zm9.54-4.79c-2.322 0-4.213 1.68-4.213 4.13 0 1.767 1.427 3.893 3.955 3.893s4.3-1.68 4.3-4.046c0-2.365-1.72-3.977-4.042-3.977zm.173 7.51c-1.916 0-2.82-2.95-2.82-4.44 0-1.492 1.014-2.555 2.183-2.555 1.67 0 2.822 1.962 2.822 4.252 0 .787-.268 2.742-2.184 2.742zm8.862-7.506c-2.32 0-4.212 1.68-4.212 4.13 0 1.765 1.427 3.89 3.954 3.89s4.298-1.68 4.298-4.044c0-2.365-1.72-3.976-4.04-3.976zm.172 7.505c-1.915 0-2.82-2.948-2.82-4.44 0-1.49 1.016-2.552 2.184-2.552 1.668 0 2.82 1.96 2.82 4.25 0 .788-.27 2.74-2.184 2.74zm12.226-7.242h-3.93c-2.015 0-3.536 1.55-3.536 3.22 0 1.174 1 2.578 2.973 2.578.205 0 .342-.042.342-.042s-.12.26-.12.605c0 .56.488 1.063.488 1.063s-4.553.004-4.553 2.912c0 1.758 1.99 2.418 3.622 2.418s4.425-.877 4.425-3.116c0-1.068-.573-1.88-1.402-2.452-.83-.57-.99-.843-.99-1.09 0-.247.008-.447.597-1.004.59-.557 1.128-1.14 1.128-2.196 0-1.567-1.06-2.265-1.06-2.265l1.01-.035 1.005-.597zm-1.482 10.23c0 1.648-1.91 1.8-2.46 1.8s-2.896-.216-2.896-2.068 2.703-2.024 3.017-2.024c.314 0 .583.045.583.045.834.735 1.756 1.1 1.756 2.248zm-2.37-4.942c-1.19 0-2.14-1.775-2.14-2.848s.538-1.84 1.486-1.84 2.076 1.087 2.076 3.066c0 .69-.23 1.622-1.422 1.622zM78 30s-.015-6.574 0-8c.015-1.426.425-1.694 1-2l-2.33-.013L76 21h1v10c-.005.382-1 1-1 1h3l.71-.584s-.177-.075-.566-.075C78.717 31.34 78 30.545 78 30zm3.224-2.3l1.307-.068 3.92-1.566s-.415-2.117-2.935-2.117-3.833 1.978-3.833 3.923c0 1.944 1.157 4.13 4.04 4.13 2.02 0 2.935-1.497 2.935-1.497s-.967.568-2.038.568c-1.427 0-3.052-1.337-3.396-3.374zm-.074-.79c0-1.67 1.168-2.342 1.9-2.342 1.467 0 1.734 1.317 1.605 1.55-.125.223-3.212 1.484-3.432 1.574a4.717 4.717 0 0 1-.073-.783z" fill-rule="evenodd" clip-rule="evenodd" fill="#FFF"/><text transform="translate(38.667 14.666)"><tspan x="0" y="0" fill="#FFF" font-family="MyriadPro-Regular" font-size="10">G</tspan><tspan x="6.78" y="0" fill="#FFF" font-family="MyriadPro-Regular" font-size="10">e</tspan><tspan x="11.63" y="0" fill="#FFF" font-family="MyriadPro-Regular" font-size="10">t</tspan><tspan x="14.94" y="0" fill="#FFF" font-family="MyriadPro-Regular" font-size="10"> </tspan><tspan x="16.66" y="0" fill="#FFF" font-family="MyriadPro-Regular" font-size="10">i</tspan><tspan x="19.6" y="0" fill="#FFF" font-family="MyriadPro-Regular" font-size="10">t </tspan><tspan x="25.029" y="0" fill="#FFF" font-family="MyriadPro-Regular" font-size="10">o</tspan><tspan x="30.539" y="0" fill="#FFF" font-family="MyriadPro-Regular" font-size="10">n</tspan></text><linearGradient id="a" gradientUnits="userSpaceOnUse" x1="28.163" y1="22.659" x2="25.126" y2="16.699"><stop offset="0" stop-color="#fcd08f"/><stop offset="1" stop-color="#f79774"/></linearGradient><path d="M25.747 23.89c2.845-1.556 5.018-2.745 5.215-2.854.59-.323 1.207-1.146 0-1.804l-5.22-2.847-3.735 3.764 3.74 3.74z" fill="url(#a)"/><linearGradient id="b" gradientUnits="userSpaceOnUse" x1="23.742" y1="21.77" x2="12.197" y2="34.151"><stop offset="0" stop-color="#e74148"/><stop offset="1" stop-color="#8051a1"/></linearGradient><path d="M22.005 20.15l-11.93 12.02c.268.035.593-.036.965-.24l14.698-8.045-3.733-3.736z" fill="url(#b)"/><linearGradient id="c" gradientUnits="userSpaceOnUse" x1="23.804" y1="18.412" x2="12.075" y2="6.267"><stop offset="0" stop-color="#e5ecaa"/><stop offset="1" stop-color="#4abebc"/></linearGradient><path d="M22.005 20.15l3.73-3.76L11.04 8.373c-.32-.174-.667-.235-.975-.166l11.94 11.942z" fill="url(#c)"/><linearGradient id="d" gradientUnits="userSpaceOnUse" x1="15.579" y1="32.189" x2="15.579" y2="8.189"><stop offset="0" stop-color="#92d4cf"/><stop offset="1" stop-color="#1a7492"/></linearGradient><path d="M22.007 20.15L10.05 8.19c-.494.11-.9.537-.9 1.396v21.168c0 .81.32 1.378.908 1.435l11.95-12.04z" fill="url(#d)"/></svg>