<svg xmlns="http://www.w3.org/2000/svg" viewBox="0 0 142 142"><path d="M133.194 57.558l-11.388-2.526c-.888-2.84-2.05-5.558-3.385-8.17l6.163-10.267c2.3-3.677 3.463-9.085 0-12.552l-6.28-6.275c-3.462-3.465-9.312-2.843-12.844-.392l-9.99 6.364a52.858 52.858 0 0 0-8.117-3.406l-2.555-11.53C84.035 4.577 80.338 0 75.438 0H66.56c-4.9 0-7.904 4.646-8.875 8.875l-2.847 11.39a53.124 53.124 0 0 0-8.643 3.632l-10.24-6.522c-3.53-2.45-9.38-3.073-12.844.392l-6.277 6.275c-3.465 3.467-2.303 8.875 0 12.552L23.32 47.4c-1.217 2.45-2.296 4.984-3.128 7.632L8.806 57.558C4.576 58.32 0 62.018 0 66.918v8.875c0 4.9 4.646 7.904 8.875 8.875l11.53 2.882c.798 2.444 1.793 4.793 2.922 7.068l-6.492 10.817c-2.3 3.675-3.463 9.083 0 12.55l6.28 6.275c3.46 3.466 9.312 2.842 12.843.394l10.262-6.54a52.755 52.755 0 0 0 8.695 3.654l2.84 11.358c.97 4.23 3.974 8.875 8.875 8.875h8.875c4.9 0 8.598-4.575 9.36-8.805l2.56-11.558c2.788-.9 5.46-2.037 8.023-3.363l10.01 6.38c3.532 2.447 9.382 3.07 12.845-.395l6.28-6.276c3.462-3.467 2.3-8.875 0-12.55l-6.168-10.28a53.575 53.575 0 0 0 3.177-7.604l11.53-2.882c4.23-.97 8.876-3.974 8.876-8.875v-8.875c.002-4.9-4.574-8.598-8.804-9.36zm-.065 17.61c-.378.27-1.09.643-1.99.85l-16.454 4.11-1.525 4.662a45.04 45.04 0 0 1-2.65 6.34l-2.228 4.377 8.693 14.496c.555.888.814 1.68.892 2.15l-5.837 5.828c-.564-.176-1.205-.406-1.512-.62l-14.608-9.316-4.542 2.35a43.827 43.827 0 0 1-6.67 2.798l-4.835 1.565-3.657 16.52c-.17.883-.642 1.594-.964 1.85h-7.987c-.27-.378-.642-1.09-.848-1.986l-4.084-16.336-4.728-1.5a43.623 43.623 0 0 1-7.23-3.037l-4.564-2.41-14.61 9.314c-.596.404-1.235.634-1.816.634l-5.82-5.664c.078-.46.318-1.218.804-1.994l9.077-15.124-2.158-4.346c-1.014-2.045-1.812-3.97-2.433-5.876l-1.523-4.667-16.293-4.074c-1.025-.235-1.766-.616-2.15-.89v-8.25c.003.002.01.005.018.005.15 0 .878-.52 1.487-.63l16.74-3.71 1.538-4.89c.626-1.994 1.48-4.07 2.61-6.35l2.157-4.35-8.98-14.965c-.558-.893-.816-1.686-.894-2.15l5.835-5.834c.565.182 1.203.41 1.508.622l14.88 9.486 4.56-2.405a44.34 44.34 0 0 1 7.198-3.028l4.717-1.502L66.3 11.028c.237-1.025.613-1.766.888-2.152h8.25c-.06.09.512.865.63 1.506l3.726 16.836 4.832 1.562a44.255 44.255 0 0 1 6.756 2.836l4.54 2.36 14.306-9.114c.598-.407 1.24-.635 1.816-.635l5.824 5.66c-.078.46-.32 1.222-.806 2l-8.784 14.628 2.24 4.383c1.21 2.366 2.133 4.585 2.818 6.784l1.534 4.9 16.402 3.64c.993.185 1.764.758 1.93 1.07l-.07 7.875zM71.06 44.33c-14.736 0-26.727 11.964-26.727 26.667 0 14.702 11.99 26.665 26.727 26.665C85.796 97.665 97.788 85.7 97.788 71c0-14.704-11.992-26.668-26.728-26.668zM71 88.75c-9.79 0-17.75-7.962-17.75-17.75 0-9.79 7.96-17.75 17.75-17.75 9.787 0 17.75 7.962 17.75 17.75 0 9.787-7.963 17.75-17.75 17.75z" fill-rule="evenodd" clip-rule="evenodd" fill="#f3c523"/></svg>