<svg xmlns="http://www.w3.org/2000/svg" viewBox="0 0 151.996 140.017"><path d="M151.996 46.23C151.996 20.537 124.23 0 89.97 0 55.712 0 28.535 20.537 28.535 46.23c-.408 29.035 26.14 48.603 60.395 48.603 1.22 0 2.254.014 3.218.014 2.28 0 4.116-.065 6.837-.468 2.65 3.23 20.535 16.864 32.652 18.844-.005-.014.014-.014.06-.014.167 0 .635.06.922.06a3.502 3.502 0 0 0 3.225-4.895h.01c-2.28-3.93-8.07-13.467-8.07-20.42 0-.107-.028-.182-.028-.28 16.39-8.38 24.24-25.442 24.24-41.445zm-28.56 32.994l-5.172 2.643.445 5.81s-.14 2.897 3.07 12.05c-5.276-3.32-11.4-8.434-12.81-10.06l-6.077-5.05-5.298.37c-4.54.672-8.96.502-8.96.502-28.967 0-50.515-16.62-50.605-39.258 0-20.422 22.974-36.736 51.94-36.736 28.967 0 52.534 16.314 52.534 36.736 0 12.26-5.916 26.265-19.067 32.992zm-39.22 25.426c-8.153 6.383-17.71 9.457-30.607 9.457 0 0-5.342-.004-7.316-.292l-4.993-.77s-3.182 5.67-12.445 12.46c.727-3.077 1.22-15.242 1.22-15.242l-4.725-2.346c-11.087-5.674-15.857-13.1-15.857-23.342 0-8.363 2.312-14.118 10.42-19.723-1.062-3.227-2.038-6.9-2.344-10.32C5.025 61.895 0 71.706 0 84.575c0 13.83 6.563 24.4 20.73 31.645 0 .084-.028.148-.028.24 0 6.01-3.092 15.93-5.062 19.324h.01c-.154.367-.25.77-.25 1.196a3.032 3.032 0 0 0 3.04 3.036c.246 0 .654-.05.793-.05.047 0 .06 0 .055.008 10.472-1.706 23.335-13.978 25.634-16.764 2.35.343 3.94.4 5.91.4.835 0 1.725-.01 2.777-.01 19.338 0 34.75-7.265 44.18-18.78-.345-.302-15.788-.307-13.573-.17z" fill-rule="evenodd" clip-rule="evenodd" fill="#f3c523"/></svg>